<svg width="838" height="224" viewBox="0 0 838 224" fill="none" xmlns="http://www.w3.org/2000/svg">
<path d="M223.831 164.343C223.842 163.967 223.777 163.593 223.639 163.242C223.502 162.892 223.295 162.573 223.032 162.305C207.882 146.316 185.976 138.002 163.071 136.163C147.881 117.016 140.446 89.955 141.925 63.9331C150.954 56.6841 158.048 47.313 162.575 36.6557C167.102 25.9984 168.92 14.3864 167.868 2.85562C167.833 2.44185 167.716 2.03923 167.523 1.67138C167.33 1.30353 167.066 0.977868 166.746 0.713505C166.426 0.449143 166.056 0.251405 165.658 0.131902C165.261 0.0123998 164.843 -0.0264579 164.43 0.0176018C164.054 0.00695099 163.68 0.0722604 163.329 0.209622C162.979 0.346984 162.66 0.553571 162.391 0.817041C146.402 15.9665 138.087 37.8712 136.248 60.7753C117.021 75.9247 89.9588 83.3596 63.9358 81.8806C56.6865 72.8518 47.315 65.7577 36.6572 61.2311C25.9995 56.7046 14.387 54.8864 2.85574 55.9387C2.44196 55.9736 2.03932 56.0908 1.67145 56.2834C1.30359 56.4761 0.977909 56.7403 0.713536 57.0605C0.449162 57.3807 0.251415 57.7505 0.131908 58.1482C0.0124003 58.5458 -0.026459 58.9634 0.0176026 59.3763C0.00695128 59.7524 0.0722634 60.1267 0.209631 60.477C0.346998 60.8273 0.553595 61.1462 0.817075 61.4148C15.9672 77.4037 37.8728 85.7179 60.7778 87.5566C75.9279 106.663 83.2432 133.725 81.7641 159.507C72.7029 166.803 65.5987 176.238 61.0909 186.963C56.5831 197.688 54.8134 209.365 55.941 220.944C55.9759 221.358 56.0932 221.76 56.2858 222.128C56.4785 222.496 56.7427 222.822 57.0629 223.086C57.3831 223.35 57.7529 223.548 58.1506 223.667C58.5483 223.787 58.9659 223.826 59.3788 223.782C59.7549 223.792 60.1293 223.727 60.4796 223.59C60.8298 223.452 61.1488 223.246 61.4174 222.982C77.407 207.833 85.7215 185.928 87.5603 163.024C106.668 147.875 133.73 140.56 159.513 142.039C166.81 151.1 176.246 158.203 186.971 162.711C197.696 167.219 209.374 168.988 220.953 167.861C221.378 167.832 221.792 167.716 222.171 167.52C222.549 167.325 222.883 167.054 223.153 166.725C223.423 166.395 223.622 166.014 223.739 165.604C223.855 165.194 223.887 164.765 223.831 164.343ZM142.844 54.9394C144.809 38.4068 151.451 22.7785 161.992 9.89072C161.836 26.8518 154.948 43.0562 142.844 54.9394ZM54.9017 80.9612C38.3685 78.9969 22.7394 72.3545 9.85117 61.8146C18.2565 61.8866 26.5653 63.6147 34.3023 66.9C42.0393 70.1853 49.0527 74.9635 54.9417 80.9612H54.9017ZM80.9247 168.9C78.9602 185.433 72.3175 201.061 61.7772 213.949C61.8544 205.541 63.5889 197.231 66.8813 189.494C70.1737 181.757 74.9594 174.745 80.9646 168.86L80.9247 168.9ZM87.9201 155.03C88.5838 131.223 81.8982 107.789 68.7726 87.9164C92.5804 88.58 116.015 81.8947 135.889 68.7697C135.225 92.5765 141.911 116.01 155.036 135.883C131.228 135.219 107.794 141.905 87.9201 155.03ZM168.747 142.798C185.28 144.763 200.909 151.405 213.798 161.945C196.883 161.768 180.728 154.898 168.867 142.838L168.747 142.798Z" fill="white"/>
<path d="M304.999 125.967V171.658H277.584V43.7236H304.999V88.6834C311.396 81.9212 319.438 79.3625 328.577 79.3625C354.53 79.3625 370.797 101.66 370.797 125.967V171.658H343.381V125.967C343.381 113.539 338.446 104.767 325.104 104.767C311.945 104.767 304.999 113.174 304.999 125.967ZM430.746 147.168C444.088 147.168 451.764 139.309 451.764 125.967C451.764 112.625 444.088 104.767 430.746 104.767C417.404 104.767 409.727 112.625 409.727 125.967C409.727 139.309 417.404 147.168 430.746 147.168ZM430.746 172.572C402.599 172.572 382.311 153.93 382.311 125.967C382.311 97.0905 403.33 79.3625 430.746 79.3625C459.075 79.3625 479.18 98.0043 479.18 125.967C479.18 154.661 457.979 172.572 430.746 172.572ZM487.953 168.734V143.147C500.016 146.802 515.186 147.533 527.614 147.533C532.549 147.533 536.387 147.35 539.129 146.802C541.688 146.437 542.967 145.523 542.967 144.243C542.967 143.695 542.784 143.33 542.419 142.781C540.591 140.954 536.57 140.04 534.194 139.492C531.818 138.943 528.711 138.212 524.873 137.481C521.766 136.933 518.11 136.202 513.907 135.288C499.65 132.181 488.684 124.139 488.684 108.787C488.684 86.1247 510.799 79.3625 529.442 79.3625C541.139 79.3625 552.837 81.0073 564.351 83.3833V109.153C552.837 105.68 539.86 104.767 527.797 104.767C523.045 104.767 519.755 104.949 517.745 105.498C515.734 106.046 514.638 106.96 514.638 108.056C514.638 109.701 516.283 110.798 519.39 111.346C522.497 112.077 526.883 112.991 532.184 113.905C536.936 114.819 541.505 115.732 545.892 116.829C559.417 120.301 569.103 127.612 569.103 142.233C569.103 166.723 544.429 172.754 524.69 172.754C512.262 172.754 500.016 171.11 487.953 168.734ZM632.708 83.3833V108.787H607.12V125.967C607.12 140.04 616.441 147.168 629.966 147.168C631.611 147.168 633.073 146.985 634.353 146.802C635.632 146.619 636.729 146.437 638.008 146.254V171.658C636.363 171.841 635.084 172.206 634.17 172.389C633.073 172.572 631.246 172.572 628.87 172.572C601.271 172.572 579.704 153.747 579.704 125.967V58.3447H607.12V83.3833H632.708ZM673.1 115.001C675.842 115.915 678.949 116.646 682.239 117.012C685.529 117.56 688.636 117.743 691.56 117.743C695.215 117.743 704.537 117.012 704.537 111.712C704.537 106.046 696.495 105.863 692.474 105.863C684.432 105.863 677.487 107.691 673.1 115.001ZM724.824 143.147V168.734C714.589 171.11 704.354 172.754 693.753 172.754C664.693 172.754 643.126 155.758 643.126 126.333C643.126 97.2733 663.962 79.3625 691.56 79.3625C710.385 79.3625 732.135 88.3179 732.135 109.701C732.135 130.902 709.106 138.761 691.377 138.761C684.615 138.761 677.852 136.933 671.638 134.374C675.293 144.609 686.26 146.254 695.764 146.254C700.698 146.254 705.633 146.071 710.568 145.34C715.137 144.974 720.438 144.426 724.824 143.147ZM809.813 125.967C809.813 112.26 803.05 104.767 789.16 104.767C785.321 104.767 782.032 105.315 779.29 106.411C774.172 108.787 770.7 112.26 769.055 117.743C768.141 120.301 767.775 123.043 767.775 125.967C767.775 128.891 768.141 131.633 769.055 134.191C770.517 139.492 774.355 143.33 779.29 145.34C782.032 146.619 785.321 147.168 789.16 147.168C803.05 147.168 809.813 139.674 809.813 125.967ZM809.813 89.4144V43.7236H837.228V125.967C837.228 155.026 816.575 172.572 788.977 172.572C760.83 172.572 740.36 154.295 740.36 126.333C740.36 100.563 759.368 79.3625 785.321 79.3625C795.008 79.3625 803.416 82.1039 809.813 89.4144Z" fill="white"/>
</svg>
