<svg width="838" height="224" viewBox="0 0 838 224" fill="none" xmlns="http://www.w3.org/2000/svg">
<path d="M223.831 164.343C223.842 163.967 223.777 163.593 223.639 163.242C223.502 162.892 223.295 162.573 223.032 162.305C207.882 146.316 185.976 138.002 163.071 136.163C147.881 117.016 140.446 89.955 141.925 63.9331C150.954 56.6841 158.048 47.313 162.575 36.6557C167.102 25.9984 168.92 14.3864 167.868 2.85562C167.833 2.44185 167.716 2.03923 167.523 1.67138C167.33 1.30353 167.066 0.977868 166.746 0.713505C166.426 0.449143 166.056 0.251405 165.658 0.131902C165.261 0.0123998 164.843 -0.0264579 164.43 0.0176018C164.054 0.00695099 163.68 0.0722604 163.329 0.209622C162.979 0.346984 162.66 0.553571 162.391 0.817041C146.402 15.9665 138.087 37.8712 136.248 60.7753C117.021 75.9247 89.9588 83.3596 63.9358 81.8806C56.6865 72.8518 47.315 65.7577 36.6572 61.2311C25.9995 56.7046 14.387 54.8864 2.85574 55.9387C2.44196 55.9736 2.03932 56.0908 1.67145 56.2834C1.30359 56.4761 0.977909 56.7403 0.713536 57.0605C0.449162 57.3807 0.251415 57.7505 0.131908 58.1482C0.0124003 58.5458 -0.026459 58.9634 0.0176026 59.3763C0.00695128 59.7524 0.0722634 60.1267 0.209631 60.477C0.346998 60.8273 0.553595 61.1462 0.817075 61.4148C15.9672 77.4037 37.8728 85.7179 60.7778 87.5566C75.9279 106.663 83.2432 133.725 81.7641 159.507C72.7029 166.803 65.5987 176.238 61.0909 186.963C56.5831 197.688 54.8134 209.365 55.941 220.944C55.9759 221.358 56.0932 221.76 56.2858 222.128C56.4785 222.496 56.7427 222.822 57.0629 223.086C57.3831 223.35 57.7529 223.548 58.1506 223.667C58.5483 223.787 58.9659 223.826 59.3788 223.782C59.7549 223.792 60.1293 223.727 60.4796 223.59C60.8298 223.452 61.1488 223.246 61.4174 222.982C77.407 207.833 85.7215 185.928 87.5603 163.024C106.668 147.875 133.73 140.56 159.513 142.039C166.81 151.1 176.246 158.203 186.971 162.711C197.696 167.219 209.374 168.988 220.953 167.861C221.378 167.832 221.792 167.716 222.171 167.52C222.549 167.325 222.883 167.054 223.153 166.725C223.423 166.395 223.622 166.014 223.739 165.604C223.855 165.194 223.887 164.765 223.831 164.343ZM142.844 54.9394C144.809 38.4068 151.451 22.7785 161.992 9.89072C161.836 26.8518 154.948 43.0562 142.844 54.9394ZM54.9017 80.9612C38.3685 78.9969 22.7394 72.3545 9.85117 61.8146C18.2565 61.8866 26.5653 63.6147 34.3023 66.9C42.0393 70.1853 49.0527 74.9635 54.9417 80.9612H54.9017ZM80.9247 168.9C78.9602 185.433 72.3175 201.061 61.7772 213.949C61.8544 205.541 63.5889 197.231 66.8813 189.494C70.1737 181.757 74.9594 174.745 80.9646 168.86L80.9247 168.9ZM87.9201 155.03C88.5838 131.223 81.8982 107.789 68.7726 87.9164C92.5804 88.58 116.015 81.8947 135.889 68.7697C135.225 92.5765 141.911 116.01 155.036 135.883C131.228 135.219 107.794 141.905 87.9201 155.03ZM168.747 142.798C185.28 144.763 200.909 151.405 213.798 161.945C196.883 161.768 180.728 154.898 168.867 142.838L168.747 142.798Z" fill="#E3674D"/>
<path d="M304.999 127.967V173.658H277.584V45.7236H304.999V90.6834C311.396 83.9212 319.438 81.3625 328.577 81.3625C354.53 81.3625 370.797 103.66 370.797 127.967V173.658H343.381V127.967C343.381 115.539 338.446 106.767 325.104 106.767C311.945 106.767 304.999 115.174 304.999 127.967ZM430.746 149.168C444.088 149.168 451.764 141.309 451.764 127.967C451.764 114.625 444.088 106.767 430.746 106.767C417.404 106.767 409.727 114.625 409.727 127.967C409.727 141.309 417.404 149.168 430.746 149.168ZM430.746 174.572C402.599 174.572 382.311 155.93 382.311 127.967C382.311 99.0905 403.33 81.3625 430.746 81.3625C459.075 81.3625 479.18 100.004 479.18 127.967C479.18 156.661 457.979 174.572 430.746 174.572ZM487.953 170.734V145.147C500.016 148.802 515.186 149.533 527.614 149.533C532.549 149.533 536.387 149.35 539.129 148.802C541.688 148.437 542.967 147.523 542.967 146.243C542.967 145.695 542.784 145.33 542.419 144.781C540.591 142.954 536.57 142.04 534.194 141.492C531.818 140.943 528.711 140.212 524.873 139.481C521.766 138.933 518.11 138.202 513.907 137.288C499.65 134.181 488.684 126.139 488.684 110.787C488.684 88.1247 510.799 81.3625 529.442 81.3625C541.139 81.3625 552.837 83.0073 564.351 85.3833V111.153C552.837 107.68 539.86 106.767 527.797 106.767C523.045 106.767 519.755 106.949 517.745 107.498C515.734 108.046 514.638 108.96 514.638 110.056C514.638 111.701 516.283 112.798 519.39 113.346C522.497 114.077 526.883 114.991 532.184 115.905C536.936 116.819 541.505 117.732 545.892 118.829C559.417 122.301 569.103 129.612 569.103 144.233C569.103 168.723 544.429 174.754 524.69 174.754C512.262 174.754 500.016 173.11 487.953 170.734ZM632.708 85.3833V110.787H607.12V127.967C607.12 142.04 616.441 149.168 629.966 149.168C631.611 149.168 633.073 148.985 634.353 148.802C635.632 148.619 636.729 148.437 638.008 148.254V173.658C636.363 173.841 635.084 174.206 634.17 174.389C633.073 174.572 631.246 174.572 628.87 174.572C601.271 174.572 579.704 155.747 579.704 127.967V60.3447H607.12V85.3833H632.708ZM673.1 117.001C675.842 117.915 678.949 118.646 682.239 119.012C685.529 119.56 688.636 119.743 691.56 119.743C695.215 119.743 704.537 119.012 704.537 113.712C704.537 108.046 696.495 107.863 692.474 107.863C684.432 107.863 677.487 109.691 673.1 117.001ZM724.824 145.147V170.734C714.589 173.11 704.354 174.754 693.753 174.754C664.693 174.754 643.126 157.758 643.126 128.333C643.126 99.2733 663.962 81.3625 691.56 81.3625C710.385 81.3625 732.135 90.3179 732.135 111.701C732.135 132.902 709.106 140.761 691.377 140.761C684.615 140.761 677.852 138.933 671.638 136.374C675.293 146.609 686.26 148.254 695.764 148.254C700.698 148.254 705.633 148.071 710.568 147.34C715.137 146.974 720.438 146.426 724.824 145.147ZM809.813 127.967C809.813 114.26 803.05 106.767 789.16 106.767C785.321 106.767 782.032 107.315 779.29 108.411C774.172 110.787 770.7 114.26 769.055 119.743C768.141 122.301 767.775 125.043 767.775 127.967C767.775 130.891 768.141 133.633 769.055 136.191C770.517 141.492 774.355 145.33 779.29 147.34C782.032 148.619 785.321 149.168 789.16 149.168C803.05 149.168 809.813 141.674 809.813 127.967ZM809.813 91.4144V45.7236H837.228V127.967C837.228 157.026 816.575 174.572 788.977 174.572C760.83 174.572 740.36 156.295 740.36 128.333C740.36 102.563 759.368 81.3625 785.321 81.3625C795.008 81.3625 803.416 84.1039 809.813 91.4144Z" fill="#141413"/>
</svg>
